<svg xmlns="http://www.w3.org/2000/svg" xmlns:xlink="http://www.w3.org/1999/xlink" width="36px" height="36px" viewBox="0 0 36 36" version="1.1">
    <title>logo_chef</title>
    <description/>
    <defs/>
    <g id="Page-1" stroke="none" stroke-width="1" fill="none" fill-rule="evenodd">
        <g id="Cookbooks" transform="translate(-54.000000, -32.000000)">
            <g id="logo_chef">
                <path d="M72 57.8 C67.7 57.8 64.3 54.2 64.3 49.8 C64.3 45.4 67.7 41.9 72 41.9 C75.5 41.9 78.4 44.3 79.3 47.6 L82.3 47.6 C81.3 42.6 77.1 38.9 72 38.9 C66.1 38.9 61.4 43.8 61.4 49.8 C61.4 55.9 66.1 60.8 72 60.8 C77.1 60.8 81.3 57.1 82.3 52.1 L79.3 52.1 C78.4 55.4 75.5 57.8 72 57.8 " id="Fill-5" fill="#435363"/>
                <path d="M66.8 55.2 C68.1 56.6 69.9 57.5 72 57.5 L72 54.3 C70.8 54.3 69.7 53.8 68.9 53 L66.8 55.2 " id="Fill-6" fill="#435363"/>
                <path d="M64.6 49.8 C64.6 50.9 64.9 52 65.2 52.9 L68.1 51.6 C67.8 51.1 67.7 50.5 67.7 49.8 C67.7 47.4 69.6 45.4 72 45.4 L72 42.2 C67.9 42.2 64.6 45.6 64.6 49.8 " id="Fill-7" fill="#F38B00"/>
                <path d="M74.6 42.7 L73.5 45.7 C74.4 46.1 75.2 46.8 75.7 47.6 L79 47.6 C78.3 45.4 76.7 43.6 74.6 42.7 " id="Fill-8" fill="#435363"/>
                <path d="M73.5 54 L74.6 56.9 C76.7 56.1 78.3 54.3 79 52.1 L75.7 52.1 C75.2 52.9 74.4 53.6 73.5 54 " id="Fill-9" fill="#F38B00"/>
                <path d="M58.4 54.1 C58.3 53.9 58.3 53.8 58.3 53.6 C58.3 53.6 58.3 53.6 58.3 53.6 C58.2 53.4 58.2 53.3 58.1 53.1 C58.1 53.1 58.1 53 58.1 53 C58.1 52.9 58.1 52.7 58 52.6 C58 52.5 58 52.5 58 52.4 C58 52.3 58 52.2 58 52.1 C57.9 52 57.9 51.9 57.9 51.8 C57.8 51.2 57.8 50.5 57.8 49.8 L54.9 49.8 C54.9 50.6 54.9 51.3 55 52 L55 52 C55 52 55 52 55 52 C55 52.2 55.1 52.4 55.1 52.6 C55.1 52.6 55.1 52.7 55.1 52.7 C55.1 52.9 55.2 53.1 55.2 53.2 C55.2 53.3 55.2 53.4 55.3 53.5 C55.3 53.6 55.3 53.7 55.3 53.8 C55.4 53.9 55.4 54 55.4 54.2 C55.4 54.2 55.5 54.3 55.5 54.4 C55.5 54.6 55.5 54.7 55.6 54.8 C55.6 54.9 55.6 54.9 55.6 55 L55.6 55 C55.8 55.7 56.1 56.3 56.3 57 L59 55.8 C58.8 55.2 58.6 54.7 58.4 54.1 " id="Fill-10" fill="#435363"/>
                <path d="M72 64.6 C68.1 64.6 64.5 62.9 61.9 60.2 L59.9 62.4 C63 65.6 67.2 67.6 72 67.6 C80.7 67.6 87.8 60.8 88.9 52.1 L86 52.1 C84.9 59.1 79 64.6 72 64.6 " id="Fill-11" fill="#F38B00"/>
                <path d="M72 35.1 C75.1 35.1 78.1 36.2 80.4 38 L82.2 35.6 C79.3 33.4 75.8 32.1 72 32.1 C64.7 32.1 58.5 36.8 56.1 43.4 L58.8 44.5 C60.8 39 66 35.1 72 35.1 " id="Fill-12" fill="#F38B00"/>
                <path d="M86 47.6 L88.9 47.6 C88.6 45 87.7 42.6 86.4 40.4 L84 42 C85 43.7 85.7 45.6 86 47.6 " id="Fill-13" fill="#435363"/>
                <path d="M82.7 47.6 L85.6 47.6 C84.8 42.5 81.5 38.3 77 36.5 L75.9 39.3 C79.4 40.6 81.9 43.8 82.7 47.6 " id="Fill-14" fill="#F38B00"/>
                <path d="M72 38.5 L72 38.5 L72 35.5 C72 35.5 72 35.5 72 35.5 C66.1 35.5 61.1 39.3 59.1 44.6 L61.8 45.7 C63.4 41.5 67.3 38.5 72 38.5 " id="Fill-15" fill="#435363"/>
                <path d="M61 49.8 L58.1 49.8 C58.1 55.9 61.7 61 66.8 63.2 L67.9 60.4 C63.9 58.7 61 54.6 61 49.8 " id="Fill-16" fill="#F38B00"/>
                <path d="M72 61.2 L72 64.2 C78.9 64.2 84.6 58.9 85.6 52.1 L82.7 52.1 C81.7 57.3 77.3 61.2 72 61.2 " id="Fill-17" fill="#435363"/>
            </g>
        </g>
    </g>
</svg>
